<svg width="32" height="32" viewBox="0 0 32 32" fill="none" xmlns="http://www.w3.org/2000/svg">
<path d="M10.6666 21.3334V14.6667M16 21.3334V10.6667M21.3333 21.3334V18.6667M24 5.33337H7.99998C7.29274 5.33337 6.61446 5.61433 6.11436 6.11442C5.61426 6.61452 5.33331 7.2928 5.33331 8.00004V24C5.33331 24.7073 5.61426 25.3856 6.11436 25.8857C6.61446 26.3858 7.29274 26.6667 7.99998 26.6667H24C24.7072 26.6667 25.3855 26.3858 25.8856 25.8857C26.3857 25.3856 26.6666 24.7073 26.6666 24V8.00004C26.6666 7.2928 26.3857 6.61452 25.8856 6.11442C25.3855 5.61433 24.7072 5.33337 24 5.33337Z" stroke="black" stroke-width="1.5" stroke-linecap="round" stroke-linejoin="round"/>
</svg>
