<svg width="24" height="24" viewBox="0 0 24 24" fill="none" xmlns="http://www.w3.org/2000/svg">
<path d="M20.4 11H3.6C3.24 11 3 11.4 3 12C3 12.6 3.24 13 3.6 13H20.4C20.76 13 21 12.6 21 12C21 11.4 20.76 11 20.4 11Z" fill="#094A42"/>
<path d="M20.4 5.40002H3.6C3.24 5.40002 3 5.80002 3 6.40002C3 7.00002 3.24 7.40002 3.6 7.40002H20.4C20.76 7.40002 21 7.00002 21 6.40002C21 5.80002 20.76 5.40002 20.4 5.40002Z" fill="#094A42"/>
<path d="M20.4 16.6H3.6C3.24 16.6 3 17 3 17.6C3 18.2 3.24 18.6 3.6 18.6H20.4C20.76 18.6 21 18.2 21 17.6C21 17 20.76 16.6 20.4 16.6Z" fill="#094A42"/>
</svg>
