<svg width="24" height="24" viewBox="0 0 24 24" fill="none" xmlns="http://www.w3.org/2000/svg">
<rect x="4" y="4" width="16" height="16" rx="3" stroke="black" stroke-width="1.5"/>
<path d="M9.74013 12.5715C10.6316 12.5715 11.3543 11.9319 11.3543 11.1429C11.3543 10.3539 10.6316 9.71436 9.74013 9.71436C8.84866 9.71436 8.12598 10.3539 8.12598 11.1429C8.12598 11.9319 8.84866 12.5715 9.74013 12.5715Z" stroke="black" stroke-width="1.2" stroke-linecap="round" stroke-linejoin="round"/>
<path d="M14.2597 10.8571C15.1511 10.8571 15.8738 10.2175 15.8738 9.42857C15.8738 8.63959 15.1511 8 14.2597 8C13.3682 8 12.6455 8.63959 12.6455 9.42857C12.6455 10.2175 13.3682 10.8571 14.2597 10.8571Z" stroke="black" stroke-width="1.2" stroke-linecap="round" stroke-linejoin="round"/>
<path d="M12.5649 13.0541C13.0421 12.7501 13.6271 12.5713 14.2598 12.5713C15.5247 12.5713 16.601 13.2867 17 14.2856" stroke="black" stroke-width="1.2" stroke-linecap="round" stroke-linejoin="round"/>
<path d="M7 15.9999C7.39902 15.0011 8.47534 14.2856 9.74019 14.2856C11.005 14.2856 12.0814 15.0011 12.4804 15.9999" stroke="black" stroke-width="1.2" stroke-linecap="round" stroke-linejoin="round"/>
</svg>
