<svg width="32" height="32" viewBox="0 0 32 32" fill="none" xmlns="http://www.w3.org/2000/svg">
<rect x="5" y="5" width="22" height="22" rx="3" stroke="black" stroke-width="1.5"/>
<path d="M12.3844 17.0001C13.8108 17.0001 14.967 15.8808 14.967 14.5001C14.967 13.1194 13.8108 12.0001 12.3844 12.0001C10.958 12.0001 9.80176 13.1194 9.80176 14.5001C9.80176 15.8808 10.958 17.0001 12.3844 17.0001Z" stroke="black" stroke-width="1.2" stroke-linecap="round" stroke-linejoin="round"/>
<path d="M19.6157 14C21.0421 14 22.1984 12.8807 22.1984 11.5C22.1984 10.1193 21.0421 9 19.6157 9C18.1894 9 17.0331 10.1193 17.0331 11.5C17.0331 12.8807 18.1894 14 19.6157 14Z" stroke="black" stroke-width="1.2" stroke-linecap="round" stroke-linejoin="round"/>
<path d="M16.9039 17.8449C17.6673 17.3129 18.6032 16.9999 19.6156 16.9999C21.6394 16.9999 23.3615 18.2519 23.9999 19.9999" stroke="black" stroke-width="1.2" stroke-linecap="round" stroke-linejoin="round"/>
<path d="M8 23C8.63843 21.252 10.3605 20 12.3843 20C14.4081 20 16.1302 21.252 16.7686 23" stroke="black" stroke-width="1.2" stroke-linecap="round" stroke-linejoin="round"/>
</svg>
