<svg width="224" height="54" viewBox="0 0 224 54" fill="none" xmlns="http://www.w3.org/2000/svg">
<path d="M1.2266 35.9673C1.2266 30.8084 5.40871 26.6263 10.5676 26.6263H28.5257V30.7782C28.5257 37.8224 22.8152 43.5329 15.771 43.5329H1.2266V35.9673Z" stroke="#094A42" stroke-width="1.8"/>
<path d="M1.1266 29.8654C1.1266 25.5704 4.60841 22.0886 8.90345 22.0886H25.1615V25.788C25.1615 31.662 20.3997 36.4238 14.5257 36.4238H1.1266V29.8654Z" stroke="#094A42" stroke-width="1.6"/>
<path d="M1.1266 25.7692C1.1266 21.4742 4.60841 17.9924 8.90345 17.9924H20.3117V20.3061C20.3117 26.1801 15.5499 30.9419 9.67587 30.9419H1.1266V25.7692Z" stroke="#094A42" stroke-width="1.6"/>
<path d="M52.05 38.05V43H36.66V20.59H41.61V38.05H52.05ZM67.0437 43V38.05H60.3237V43H55.3737V28.69C55.3737 23.23 59.3337 20.2 63.6537 20.2C67.9437 20.2 71.9937 23.23 71.9937 28.69V43H67.0437ZM60.3237 33.1H67.0437V28.96C67.0137 26.5 65.5737 25.15 63.6537 25.15C61.6137 25.15 60.3237 26.5 60.3237 28.96V33.1ZM85.3852 43H76.4452V20.5H84.7252C89.1652 20.5 91.7452 23.11 91.7452 26.92C91.7452 28.42 90.7552 30.07 89.2852 30.94C90.6952 31.36 92.5852 33.37 92.5852 36.16C92.5852 40.36 89.9152 43 85.3852 43ZM86.7952 27.19C86.7952 25.51 85.5052 24.79 84.3652 24.79H81.3952V29.5H84.3652C85.4152 29.5 86.7952 28.93 86.7952 27.19ZM84.2752 33.25H81.3952V38.65H84.2752C86.0452 38.65 87.6352 38.17 87.6352 35.95C87.6352 33.91 85.5652 33.25 84.2752 33.25ZM96.2206 43V20.53H104.051C108.881 20.53 112.721 24.13 112.721 29.14C112.721 32.14 111.281 34.81 109.031 36.43C109.511 37.21 110.231 38.47 113.021 43H107.411L104.351 38.05H104.051H101.171V43H96.2206ZM101.171 33.16H103.931C106.031 33.16 107.771 31.45 107.771 29.29C107.771 27.07 106.061 25.42 103.931 25.42H101.171V33.16ZM116.67 20.5H121.62V43H116.67V20.5ZM143.376 38.05V43H124.056L135.606 25.45H126.786V20.5H144.666L133.266 38.05H143.376Z" fill="#094A42"/>
</svg>
