<svg width="109" height="23" viewBox="0 0 109 23" fill="none" xmlns="http://www.w3.org/2000/svg">
<path d="M16.05 18.05V23H0.660039V0.589999H5.61004V18.05H16.05ZM31.0437 23V18.05H24.3237V23H19.3737V8.69C19.3737 3.23 23.3337 0.199998 27.6537 0.199998C31.9437 0.199998 35.9937 3.23 35.9937 8.69V23H31.0437ZM24.3237 13.1H31.0437V8.96C31.0137 6.5 29.5737 5.15 27.6537 5.15C25.6137 5.15 24.3237 6.5 24.3237 8.96V13.1ZM49.3852 23H40.4452V0.499998H48.7252C53.1652 0.499998 55.7452 3.11 55.7452 6.92C55.7452 8.42 54.7552 10.07 53.2852 10.94C54.6952 11.36 56.5852 13.37 56.5852 16.16C56.5852 20.36 53.9152 23 49.3852 23ZM50.7952 7.19C50.7952 5.51 49.5052 4.79 48.3652 4.79H45.3952V9.5H48.3652C49.4152 9.5 50.7952 8.93 50.7952 7.19ZM48.2752 13.25H45.3952V18.65H48.2752C50.0452 18.65 51.6352 18.17 51.6352 15.95C51.6352 13.91 49.5652 13.25 48.2752 13.25ZM60.2206 23V0.53H68.0506C72.8806 0.53 76.7206 4.13 76.7206 9.14C76.7206 12.14 75.2806 14.81 73.0306 16.43C73.5106 17.21 74.2306 18.47 77.0206 23H71.4106L68.3506 18.05H68.0506H65.1706V23H60.2206ZM65.1706 13.16H67.9306C70.0306 13.16 71.7706 11.45 71.7706 9.29C71.7706 7.07 70.0606 5.42 67.9306 5.42H65.1706V13.16ZM80.6698 0.499998H85.6198V23H80.6698V0.499998ZM107.376 18.05V23H88.0564L99.6064 5.45H90.7864V0.499998H108.666L97.2664 18.05H107.376Z" fill="#094A42"/>
</svg>
