<svg width="218" height="60" viewBox="0 0 218 60" fill="none" xmlns="http://www.w3.org/2000/svg">
<g clip-path="url(#clip0_2_167)">
<path d="M3.44043 42.1497C3.44043 30.6283 12.7804 21.2884 24.3017 21.2884H64.3121V30.6183C64.3121 46.3293 51.5758 59.0655 35.8649 59.0655H3.44043V42.1497Z" stroke="#E7BA81" stroke-width="3.79297"/>
<path d="M3.13225 28.5898C3.13225 18.9406 10.9544 11.1184 20.6036 11.1184H56.9221V19.5289C56.9221 32.6868 46.2555 43.3534 33.0975 43.3534H3.13225V28.5898Z" stroke="#E7BA81" stroke-width="3.17661"/>
<path d="M3.13225 19.4871C3.13225 9.83797 10.9544 2.01578 20.6036 2.01578H46.1447V7.34692C46.1447 20.5049 35.478 31.1715 22.3201 31.1715H3.13225V19.4871Z" stroke="#E7BA81" stroke-width="3.17661"/>
<path d="M75.3262 10.6116H76.7789L79.3047 16.779H79.3977L81.9235 10.6116H83.3763V18.5455H82.2373V12.8043H82.1637L79.8238 18.5339H78.8786L76.5387 12.8004H76.4651V18.5455H75.3262V10.6116ZM85.7712 18.5455V10.6116H90.7454V11.6421H86.9683V14.0594H90.4858V15.086H86.9683V17.515H90.7919V18.5455H85.7712ZM92.3984 20.4631V17.5305H92.9214C93.0996 17.3807 93.2662 17.1677 93.4212 16.8913C93.5761 16.615 93.7078 16.2418 93.8163 15.7717C93.9248 15.3017 93.9997 14.6987 94.041 13.9626L94.2269 10.6116H99.1198V17.5305H100.019V20.4515H98.8718V18.5455H93.5451V20.4631H92.3984ZM94.3315 17.5305H97.9731V11.6421H95.3117L95.1877 13.9626C95.1541 14.523 95.0986 15.0266 95.0211 15.4734C94.9462 15.9202 94.8494 16.3154 94.7306 16.6589C94.6143 16.9998 94.4813 17.2903 94.3315 17.5305ZM101.984 10.6116H103.17V16.4381H103.243L107.28 10.6116H108.388V18.5455H107.191V12.7268H107.117L103.088 18.5455H101.984V10.6116ZM117.828 17.4879L117.723 20.4205H116.53V18.5455H115.972V17.4879H117.828ZM110.789 18.5455V10.6116H111.936V17.5073H115.763V10.6116H116.914V18.5455H110.789ZM119.796 10.6116H120.981V16.4381H121.055L125.091 10.6116H126.199V18.5455H125.002V12.7268H124.929L120.9 18.5455H119.796V10.6116ZM128.6 18.5455V10.6116H129.797V14.0594H133.752V10.6116H134.953V18.5455H133.752V15.086H129.797V18.5455H128.6ZM143.941 13.1917H142.732C142.686 12.9334 142.599 12.7061 142.473 12.5099C142.346 12.3136 142.191 12.147 142.008 12.0101C141.824 11.8732 141.619 11.7699 141.392 11.7002C141.167 11.6305 140.928 11.5956 140.675 11.5956C140.218 11.5956 139.809 11.7105 139.447 11.9404C139.088 12.1702 138.804 12.5073 138.595 12.9515C138.388 13.3957 138.285 13.9381 138.285 14.5786C138.285 15.2242 138.388 15.7692 138.595 16.2134C138.804 16.6576 139.089 16.9933 139.451 17.2206C139.812 17.4479 140.219 17.5615 140.671 17.5615C140.922 17.5615 141.159 17.5279 141.384 17.4608C141.611 17.3911 141.817 17.289 142 17.1547C142.183 17.0205 142.338 16.8565 142.465 16.6628C142.594 16.4665 142.683 16.2418 142.732 15.9887L143.941 15.9926C143.876 16.3825 143.751 16.7415 143.565 17.0695C143.382 17.3949 143.145 17.6764 142.856 17.914C142.569 18.1491 142.241 18.3311 141.872 18.4603C141.503 18.5894 141.1 18.654 140.663 18.654C139.976 18.654 139.364 18.4913 138.827 18.1659C138.29 17.8379 137.866 17.3691 137.556 16.7596C137.249 16.1501 137.095 15.4231 137.095 14.5786C137.095 13.7315 137.25 13.0044 137.56 12.3975C137.87 11.788 138.294 11.3206 138.831 10.9951C139.368 10.6671 139.979 10.5031 140.663 10.5031C141.084 10.5031 141.477 10.5638 141.841 10.6852C142.208 10.804 142.537 10.9796 142.829 11.2121C143.121 11.4419 143.362 11.7234 143.553 12.0566C143.745 12.3872 143.874 12.7655 143.941 13.1917ZM150.735 18.5455L148.069 14.9892H147.225V18.5455H146.028V10.6116H147.225V13.9626H147.616L150.615 10.6116H152.075L148.902 14.164L152.195 18.5455H150.735ZM153.959 10.6116H155.144V16.4381H155.218L159.254 10.6116H160.362V18.5455H159.165V12.7268H159.092L155.063 18.5455H153.959V10.6116ZM162.763 10.6116H163.948V16.4381H164.022L168.059 10.6116H169.167V18.5455H167.97V12.7268H167.896L163.867 18.5455H162.763V10.6116ZM166.726 8.59715H167.679C167.679 9.03362 167.524 9.38874 167.214 9.6625C166.907 9.93367 166.491 10.0693 165.967 10.0693C165.445 10.0693 165.031 9.93367 164.723 9.6625C164.416 9.38874 164.262 9.03362 164.262 8.59715H165.211C165.211 8.79085 165.268 8.9626 165.382 9.11239C165.495 9.2596 165.69 9.33321 165.967 9.33321C166.238 9.33321 166.432 9.2596 166.548 9.11239C166.667 8.96518 166.726 8.79344 166.726 8.59715ZM182.148 17.4879L182.043 20.4205H180.85V18.5455H180.292V17.4879H182.148ZM175.109 18.5455V10.6116H176.256V17.5073H180.083V10.6116H181.234V18.5455H175.109ZM184.116 18.5455V10.6116H189.09V11.6421H185.313V14.0594H188.83V15.086H185.313V17.515H189.136V18.5455H184.116ZM191.344 18.5455V10.6116H192.541V14.0594H196.496V10.6116H197.697V18.5455H196.496V15.086H192.541V18.5455H191.344ZM199.703 11.6421V10.6116H205.844V11.6421H203.368V18.5455H202.175V11.6421H199.703ZM207.855 18.5455V10.6116H210.683C211.3 10.6116 211.812 10.724 212.217 10.9487C212.623 11.1733 212.926 11.4807 213.127 11.8707C213.329 12.2581 213.43 12.6945 213.43 13.1801C213.43 13.6682 213.328 14.1072 213.124 14.4972C212.922 14.8846 212.617 15.1919 212.209 15.4192C211.804 15.6439 211.294 15.7562 210.679 15.7562H208.734V14.7413H210.571C210.961 14.7413 211.277 14.6741 211.52 14.5398C211.763 14.4029 211.941 14.217 212.054 13.982C212.168 13.7469 212.225 13.4796 212.225 13.1801C212.225 12.8805 212.168 12.6145 212.054 12.382C211.941 12.1496 211.761 11.9675 211.516 11.8358C211.273 11.7041 210.953 11.6382 210.555 11.6382H209.052V18.5455H207.855Z" fill="#E7BA81"/>
<path d="M94.5637 52.7V59H74.9764V30.4782H81.2764V52.7H94.5637ZM113.647 59V52.7H105.094V59H98.7938V40.7873C98.7938 33.8382 103.834 29.9818 109.332 29.9818C114.792 29.9818 119.947 33.8382 119.947 40.7873V59H113.647ZM105.094 46.4H113.647V41.1309C113.608 38 111.776 36.2818 109.332 36.2818C106.736 36.2818 105.094 38 105.094 41.1309V46.4ZM136.99 59H125.612V30.3636H136.15C141.801 30.3636 145.085 33.6855 145.085 38.5345C145.085 40.4436 143.825 42.5436 141.954 43.6509C143.748 44.1855 146.154 46.7436 146.154 50.2945C146.154 55.64 142.756 59 136.99 59ZM138.785 38.8782C138.785 36.74 137.143 35.8236 135.692 35.8236H131.912V41.8182H135.692C137.028 41.8182 138.785 41.0927 138.785 38.8782ZM135.578 46.5909H131.912V53.4636H135.578C137.83 53.4636 139.854 52.8527 139.854 50.0273C139.854 47.4309 137.219 46.5909 135.578 46.5909ZM150.781 59V30.4018H160.746C166.893 30.4018 171.781 34.9836 171.781 41.36C171.781 45.1782 169.948 48.5764 167.084 50.6382C167.695 51.6309 168.612 53.2345 172.163 59H165.023L161.128 52.7H160.746H157.081V59H150.781ZM157.081 46.4764H160.593C163.266 46.4764 165.481 44.3 165.481 41.5509C165.481 38.7255 163.304 36.6255 160.593 36.6255H157.081V46.4764ZM176.807 30.3636H183.107V59H176.807V30.3636ZM210.797 52.7V59H186.208L200.908 36.6636H189.683V30.3636H212.439L197.93 52.7H210.797Z" fill="#E7BA81"/>
</g>
<defs>
<clipPath id="clip0_2_167">
<rect width="217.727" height="60" fill="white" transform="translate(0.136353)"/>
</clipPath>
</defs>
</svg>
