<svg width="32" height="32" viewBox="0 0 32 32" fill="none" xmlns="http://www.w3.org/2000/svg">
<path d="M12 6.66663H9.33335C7.86059 6.66663 6.66669 7.86053 6.66669 9.33329V25.3333C6.66669 26.8061 7.86059 28 9.33335 28H22.6667C24.1395 28 25.3334 26.8061 25.3334 25.3333V9.33329C25.3334 7.86053 24.1395 6.66663 22.6667 6.66663H20" stroke="black" stroke-width="1.5" stroke-linecap="round" stroke-linejoin="round"/>
<path d="M16 16H20" stroke="black" stroke-width="1.5" stroke-linecap="round" stroke-linejoin="round"/>
<path d="M16 21.3334H20" stroke="black" stroke-width="1.5" stroke-linecap="round" stroke-linejoin="round"/>
<path d="M12 6.66667C12 5.19391 13.1939 4 14.6667 4H17.3333C18.8061 4 20 5.19391 20 6.66667V9.33333H12V6.66667Z" stroke="black" stroke-width="1.5" stroke-linecap="round" stroke-linejoin="round"/>
<path d="M12 17.3333C12.7364 17.3333 13.3334 16.7363 13.3334 16C13.3334 15.2636 12.7364 14.6666 12 14.6666C11.2636 14.6666 10.6667 15.2636 10.6667 16C10.6667 16.7363 11.2636 17.3333 12 17.3333Z" fill="black"/>
<path d="M12 22.6667C12.7364 22.6667 13.3334 22.0697 13.3334 21.3333C13.3334 20.597 12.7364 20 12 20C11.2636 20 10.6667 20.597 10.6667 21.3333C10.6667 22.0697 11.2636 22.6667 12 22.6667Z" fill="black"/>
</svg>
