<svg width="24" height="24" viewBox="0 0 24 24" fill="none" xmlns="http://www.w3.org/2000/svg">
<rect x="3.4" y="3.4" width="17.2" height="17.2" rx="2.6" stroke="black" stroke-width="1.2"/>
<g clip-path="url(#clip0_2012_2743)">
<path d="M12 13.5C12.8284 13.5 13.5 12.8284 13.5 12C13.5 11.1716 12.8284 10.5 12 10.5C11.1716 10.5 10.5 11.1716 10.5 12C10.5 12.8284 11.1716 13.5 12 13.5Z" stroke="black" stroke-width="1.2"/>
<path d="M12.8829 7.07612C12.6991 7 12.4662 7 12.0002 7C11.5343 7 11.3013 7 11.1175 7.07612C10.8725 7.17762 10.6779 7.37229 10.5764 7.61732C10.53 7.72917 10.5119 7.85925 10.5048 8.049C10.4944 8.32784 10.3514 8.58595 10.1097 8.72547C9.86806 8.86498 9.57304 8.85977 9.32634 8.72938C9.15847 8.64065 9.03675 8.59131 8.91671 8.57551C8.65376 8.54089 8.38783 8.61215 8.17742 8.7736C8.01961 8.89469 7.90313 9.09645 7.67016 9.49996C7.43719 9.90348 7.3207 10.1052 7.29474 10.3025C7.26012 10.5654 7.33138 10.8313 7.49283 11.0417C7.56652 11.1378 7.67009 11.2185 7.83084 11.3195C8.06714 11.468 8.21919 11.721 8.21917 12C8.21916 12.279 8.06712 12.5319 7.83083 12.6804C7.67007 12.7814 7.56648 12.8622 7.49278 12.9583C7.33133 13.1687 7.26007 13.4346 7.29469 13.6975C7.32065 13.8947 7.43714 14.0965 7.67011 14.5C7.90308 14.9035 8.01957 15.1053 8.17737 15.2263C8.38778 15.3878 8.65371 15.459 8.91666 15.4244C9.03669 15.4086 9.1584 15.3593 9.32626 15.2706C9.57298 15.1402 9.86802 15.135 10.1097 15.2745C10.3514 15.414 10.4944 15.6721 10.5048 15.951C10.5119 16.1407 10.53 16.2708 10.5764 16.3827C10.6779 16.6277 10.8725 16.8224 11.1175 16.9239C11.3013 17 11.5343 17 12.0002 17C12.4662 17 12.6991 17 12.8829 16.9239C13.1279 16.8224 13.3226 16.6277 13.4241 16.3827C13.4704 16.2708 13.4886 16.1408 13.4957 15.951C13.5061 15.6722 13.6491 15.414 13.8907 15.2745C14.1324 15.1349 14.4274 15.1402 14.6742 15.2706C14.842 15.3593 14.9637 15.4086 15.0837 15.4244C15.3467 15.4591 15.6126 15.3878 15.823 15.2263C15.9808 15.1052 16.0973 14.9035 16.3303 14.5C16.5633 14.0965 16.6798 13.8947 16.7057 13.6975C16.7403 13.4346 16.6691 13.1686 16.5076 12.9582C16.4339 12.8621 16.3303 12.7814 16.1696 12.6804C15.9333 12.5319 15.7813 12.279 15.7813 11.9999C15.7813 11.7209 15.9333 11.4681 16.1696 11.3196C16.3304 11.2186 16.434 11.1378 16.5077 11.0417C16.6691 10.8314 16.7404 10.5654 16.7058 10.3025C16.6798 10.1053 16.5633 9.90352 16.3303 9.5C16.0974 9.09648 15.9809 8.89472 15.8231 8.77363C15.6127 8.61218 15.3467 8.54093 15.0838 8.57555C14.9638 8.59135 14.8421 8.64068 14.6742 8.7294C14.4275 8.85979 14.1324 8.86501 13.8908 8.72548C13.6491 8.58596 13.5061 8.32783 13.4957 8.04897C13.4886 7.85924 13.4704 7.72917 13.4241 7.61732C13.3226 7.37229 13.1279 7.17762 12.8829 7.07612Z" stroke="black" stroke-width="1.2"/>
</g>
<defs>
<clipPath id="clip0_2012_2743">
<rect width="12" height="12" fill="white" transform="translate(6 6)"/>
</clipPath>
</defs>
</svg>
